<svg version="1.0" xmlns="http://www.w3.org/2000/svg" width="682.667" height="682.667" viewBox="0 0 512 512"><path d="M169.2 33c-20.4 5.4-36.2 21.1-40.3 40-.6 2.9-.9 9.8-.7 15.4.3 9.1.7 10.8 3.9 17.7 7.3 15.3 19.1 30.9 39.4 51.8 13.2 13.6 37.3 36 54.4 50.6 5.2 4.4 14 11.9 19.5 16.7 5.6 4.8 10.6 8.8 11.1 8.8 1.5 0 28.2-23.5 50.3-44.3 46-43.3 70.1-75.2 73.4-97.5 4.9-32.9-21.9-61.2-58-61.2-13.7 0-21.8 2.2-30.8 8.2-7.8 5.2-20.7 17.3-31.2 29.3l-6.2 7-6.6-7.5c-18.6-20.9-33.2-32.5-44.8-35.4-8.9-2.2-24-2-33.4.4zM422.3 127c-25.4 9.1-59.6 39.3-109.1 96.3-23.2 26.9-25.4 29.5-25 30.6.6 1.8 40.1 45.5 53.8 59.5 25.8 26.4 51.9 47.5 69.5 56.3 10.6 5.3 16.2 6.8 26 6.7 25.8-.1 46.3-16.7 53-42.9 1.8-7 2-22.2.4-29.7-2.5-11.8-13-25.8-32.7-43.3l-11.3-10 4.8-3.9c8.9-7.2 29.8-29.2 33.2-34.9 5.9-10 6.5-12.8 6.6-28.7 0-13.9-.1-14.8-3.1-22.2-9.5-23.5-27.3-35.9-51.3-35.8-6.8.1-11.1.6-14.8 2zM59.6 132.5c-7.6 2.1-17.4 7.5-22.2 12.2-18.1 17.6-23.6 49.1-12.3 70.3 4.2 7.8 16.5 21.7 28.7 32.4 5.6 4.8 10.2 9.2 10.2 9.6 0 .4-2.4 2.6-5.3 4.9-8.2 6.3-27.1 26-31.6 33-7.4 11.5-9.7 26-6.7 41.1 5.6 27.3 24.3 44.7 50.6 46.7 29.2 2.2 65.6-27 137.2-110.1 8.1-9.4 14.8-17.8 14.8-18.6 0-2-32.2-38.1-52-58.4-34.7-35.5-63.1-57.1-82.9-63-6.6-2-21.5-2-28.5-.1zM245.5 282.2c-4.9 4.5-16.6 15-26 23.4-43.8 39.3-73.3 73.5-83.2 96.6-3.2 7.3-3.7 9.6-4.1 18.5-.3 8.5-.1 11.4 1.8 17.5 4 13.3 11.3 22.8 22.9 29.8 11.1 6.7 20.4 9.2 34.1 9.2 13.3 0 20.7-2 29.9-8 6.7-4.3 24.2-21.2 31.4-30 4.7-5.8 7.1-7.4 7.9-5.3.8 2.4 18.2 20.9 25.1 26.9 10.7 9.1 15.1 11.9 22.7 14.3 8.4 2.6 24.8 2.8 34 .4 24.8-6.4 40.8-24.9 42.7-49.3 1.2-16.6-6-32.1-27.2-57.7-10.6-12.8-41.6-43.4-61.5-60.6-24.6-21.3-39.7-33.9-40.6-33.8-.5 0-4.9 3.7-9.9 8.1z"/></svg>